<svg viewBox="0 0 55.13 55.13" xmlns="http://www.w3.org/2000/svg"><circle cx="27.56" cy="27.56" fill="none" r="25.79" stroke="#000" stroke-miterlimit="10" stroke-width="3.55"/><path d="m19.39 17.47h3.89v13a6.18 6.18 0 0 1 -.8 3.16 5.34 5.34 0 0 1 -2.25 2.11 7 7 0 0 1 -3.28.75 6.73 6.73 0 0 1 -4.66-1.51 5.46 5.46 0 0 1 -1.68-4.28h3.92a3 3 0 0 0 .58 2 2.38 2.38 0 0 0 1.84.65 2.22 2.22 0 0 0 1.78-.76 3.17 3.17 0 0 0 .66-2.16z"/><path d="m42 36.18h-3.91v-8h-7.59v8h-3.89v-18.71h3.89v7.58h7.59v-7.58h3.91z"/></svg>